# xmcd
# Copyright (C) 1995-1998 Ti Kan
#
# Track frame offsets:
#       150
#       19724
#       42210
#       64245
#       82543
#       95228
#       113334
#       132162
#       147421
#       159425
#       172544
#       187651
#
# Disc length: 2794 seconds
#
# Revision: 0
# Processed by: cddbd v1.4b42PL1 Copyright (c) Steve Scherf et al.
# Submitted via: CD-Transfer v1.0
#
DISCID=850ae80c
DTITLE=Paraffine - Divas At Your Feet
DYEAR=2000
DGENRE=
TTITLE0=On Your Way
TTITLE1=Voices
TTITLE2=Walk Of Fame
TTITLE3=The Distance Between Me
TTITLE4=Talk
TTITLE5=Understand
TTITLE6=Accolade
TTITLE7=Zero Gravity
TTITLE8=Painting
TTITLE9=Marmelade Skies
TTITLE10=Saturday Night Special
TTITLE11=Cellophane Flowers
EXTD=
EXTT0=
EXTT1=
EXTT2=
EXTT3=
EXTT4=
EXTT5=
EXTT6=
EXTT7=
EXTT8=
EXTT9=
EXTT10=
EXTT11=
PLAYORDER=
